<mxfile host="app.diagrams.net" modified="2021-12-26T07:11:00.748Z" agent="5.0 (Windows NT 10.0; Win64; x64) AppleWebKit/537.36 (KHTML, like Gecko) Chrome/96.0.4664.110 Safari/537.36 Edg/96.0.1054.62" etag="sZs2Q5Y-r6HK4Fw99VDF" version="15.9.1" type="github">
  <diagram id="KomBlYfURObIVosx0nQ2" name="Page-1">
    <mxGraphModel dx="1480" dy="903" grid="1" gridSize="10" guides="1" tooltips="1" connect="1" arrows="1" fold="1" page="1" pageScale="1" pageWidth="827" pageHeight="1169" math="0" shadow="0">
      <root>
        <mxCell id="0" />
        <mxCell id="1" parent="0" />
        <mxCell id="mV-E5b2ut-4umRUvLPbg-1" value="&lt;font style=&quot;font-size: 19px&quot;&gt;SNUROLA - Data Pipeline&lt;br&gt;&lt;/font&gt;&lt;font style=&quot;font-size: 15px&quot;&gt;author : Park YongJu&lt;br&gt;Date&amp;nbsp; 2021.12.26&lt;/font&gt;" style="text;html=1;strokeColor=none;fillColor=none;align=left;verticalAlign=middle;whiteSpace=wrap;rounded=0;" vertex="1" parent="1">
          <mxGeometry x="20" y="30" width="230" height="30" as="geometry" />
        </mxCell>
        <mxCell id="mV-E5b2ut-4umRUvLPbg-2" value="JH" style="shape=umlActor;verticalLabelPosition=bottom;verticalAlign=top;html=1;outlineConnect=0;fontSize=15;" vertex="1" parent="1">
          <mxGeometry x="150" y="990" width="30" height="60" as="geometry" />
        </mxCell>
        <mxCell id="mV-E5b2ut-4umRUvLPbg-4" value="&lt;font style=&quot;font-size: 17px&quot;&gt;Local&lt;/font&gt;" style="text;html=1;strokeColor=none;fillColor=none;align=center;verticalAlign=middle;whiteSpace=wrap;rounded=0;fontSize=15;" vertex="1" parent="1">
          <mxGeometry x="50" y="1020" width="60" height="30" as="geometry" />
        </mxCell>
        <mxCell id="mV-E5b2ut-4umRUvLPbg-5" value="UG" style="shape=umlActor;verticalLabelPosition=bottom;verticalAlign=top;html=1;outlineConnect=0;fontSize=15;" vertex="1" parent="1">
          <mxGeometry x="240" y="990" width="30" height="60" as="geometry" />
        </mxCell>
        <mxCell id="mV-E5b2ut-4umRUvLPbg-6" value="DH" style="shape=umlActor;verticalLabelPosition=bottom;verticalAlign=top;html=1;outlineConnect=0;fontSize=15;" vertex="1" parent="1">
          <mxGeometry x="330" y="990" width="30" height="60" as="geometry" />
        </mxCell>
        <mxCell id="mV-E5b2ut-4umRUvLPbg-7" value="LB" style="shape=umlActor;verticalLabelPosition=bottom;verticalAlign=top;html=1;outlineConnect=0;fontSize=15;" vertex="1" parent="1">
          <mxGeometry x="570" y="990" width="30" height="60" as="geometry" />
        </mxCell>
        <mxCell id="mV-E5b2ut-4umRUvLPbg-8" value="HK" style="shape=umlActor;verticalLabelPosition=bottom;verticalAlign=top;html=1;outlineConnect=0;fontSize=15;" vertex="1" parent="1">
          <mxGeometry x="414" y="990" width="30" height="60" as="geometry" />
        </mxCell>
        <mxCell id="mV-E5b2ut-4umRUvLPbg-9" value="YJ" style="shape=umlActor;verticalLabelPosition=bottom;verticalAlign=top;html=1;outlineConnect=0;fontSize=15;" vertex="1" parent="1">
          <mxGeometry x="500" y="990" width="30" height="60" as="geometry" />
        </mxCell>
        <mxCell id="mV-E5b2ut-4umRUvLPbg-11" value="" style="rounded=1;whiteSpace=wrap;html=1;fontSize=17;fillColor=none;" vertex="1" parent="1">
          <mxGeometry x="120" y="980" width="350" height="100" as="geometry" />
        </mxCell>
        <mxCell id="mV-E5b2ut-4umRUvLPbg-12" value="" style="rounded=1;whiteSpace=wrap;html=1;fontSize=17;fillColor=none;" vertex="1" parent="1">
          <mxGeometry x="490" y="980" width="130" height="100" as="geometry" />
        </mxCell>
        <mxCell id="mV-E5b2ut-4umRUvLPbg-13" value="&lt;font style=&quot;font-size: 17px&quot;&gt;Mac&lt;/font&gt;" style="text;html=1;strokeColor=none;fillColor=none;align=center;verticalAlign=middle;whiteSpace=wrap;rounded=0;fontSize=15;" vertex="1" parent="1">
          <mxGeometry x="280" y="1100" width="60" height="30" as="geometry" />
        </mxCell>
        <mxCell id="mV-E5b2ut-4umRUvLPbg-14" value="&lt;font style=&quot;font-size: 17px&quot;&gt;Window&lt;/font&gt;" style="text;html=1;strokeColor=none;fillColor=none;align=center;verticalAlign=middle;whiteSpace=wrap;rounded=0;fontSize=15;" vertex="1" parent="1">
          <mxGeometry x="525" y="1100" width="60" height="30" as="geometry" />
        </mxCell>
      </root>
    </mxGraphModel>
  </diagram>
</mxfile>
